<svg class="canvas" viewBox="0 0 1920 1080" preserveAspectRatio="xMaxYMid slice" xmlns="http://www.w3.org/2000/svg" version="1.1" xmlns:xlink="http://www.w3.org/1999/xlink" xmlns:svgjs="http://svgjs.dev/svgjs"><rect width="1920" height="1080" fill="hsl(279, 65%, 15%)"></rect><defs><linearGradient x1="0.5" y1="0" x2="0" y2="1" id="SvgjsLinearGradient1224"><stop stop-color="#68288a" offset="0"></stop><stop stop-color="#14060b" offset="0.1"></stop></linearGradient><linearGradient x1="0.5" y1="0" x2="0" y2="1" id="SvgjsLinearGradient1225"><stop stop-color="#68288a" offset="0"></stop><stop stop-color="#14060b" offset="0.22857142857142856"></stop></linearGradient><linearGradient x1="0.5" y1="0" x2="0" y2="1" id="SvgjsLinearGradient1226"><stop stop-color="#41288a" offset="0"></stop><stop stop-color="#140610" offset="0.3571428571428571"></stop></linearGradient><linearGradient x1="0.5" y1="0" x2="0" y2="1" id="SvgjsLinearGradient1227"><stop stop-color="#e0c0f2" offset="0"></stop><stop stop-color="#d74276" offset="0.48571428571428565"></stop></linearGradient><linearGradient x1="0.5" y1="0" x2="0" y2="1" id="SvgjsLinearGradient1228"><stop stop-color="#ccc0f2" offset="0"></stop><stop stop-color="#d742b2" offset="0.6142857142857142"></stop></linearGradient><linearGradient x1="0.5" y1="0" x2="0" y2="1" id="SvgjsLinearGradient1229"><stop stop-color="#ccc0f2" offset="0"></stop><stop stop-color="#d742b2" offset="0.7428571428571429"></stop></linearGradient><linearGradient x1="0.5" y1="0" x2="0" y2="1" id="SvgjsLinearGradient1230"><stop stop-color="#eac0f2" offset="0"></stop><stop stop-color="#d74258" offset="0.8714285714285713"></stop></linearGradient></defs><path d="M0,-491.5638511996805C68.32454477816506,-472.00639614775616,278.1230968616678,-407.06204868212535,409.9472686689904,-374.2191208881343C541.7714404763129,-341.3761930941432,667.885823235674,-329.0723869483098,790.9450308439355,-294.5062844357341C914.0042384521969,-259.9401819231583,1020.5197838533162,-209.4078468151222,1148.302514318559,-166.8225058126799C1276.0852447838015,-124.2371648102376,1429.025166021818,-74.87068085658015,1557.6414136353915,-38.99423842108026C1686.257661248965,-3.117795985580365,1859.6069022725653,33.86441759675285,1920,48.43614880031947L 1920 1080 L 0 1080 Z" fill="url(&quot;#SvgjsLinearGradient1224&quot;)"></path><path d="M0,-379.1159774949045C78.29104649056664,-351.08611709369313,312.4077630811172,-255.43870572149586,469.74627894339983,-210.9368150876365C627.0847948056825,-166.4349244537771,784.1679810839904,-154.00375676068865,944.031095173696,-112.10463369174823C1103.8942092634015,-70.20551062280782,1266.2634793439163,-7.421138421087086,1428.9249634816335,40.457923326005925C1591.5864476193508,88.33698507309893,1838.1541605802722,152.71776788000918,1920,175.16973679080982L 1920 1080 L 0 1080 Z" fill="url(&quot;#SvgjsLinearGradient1225&quot;)"></path><path d="M0,-309.4903229455889C63.66718260670123,-294.32760882291103,247.94952401847146,-260.50690407831814,382.0030956402074,-218.5140382095216C516.0566672619433,-176.52117234072506,680.3178271212678,-100.9842362496307,804.3214297304156,-57.533127732809554C928.3250323395634,-14.082019215988417,1003.024034493994,5.155733440571147,1126.0247112950947,42.19261289140524C1249.0253880961955,79.22949234223933,1409.9962757528688,128.54006684978924,1542.3254905370197,164.688148972195C1674.6547053211707,200.83623109460075,1857.0542484228367,243.3489461835656,1920,259.0811056258397L 1920 1080 L 0 1080 Z" fill="url(&quot;#SvgjsLinearGradient1226&quot;)"></path><path d="M0,-157.6507974820825C67.21597867804492,-134.0898060580715,280.08833552405184,-54.48037717876601,403.29587206826955,-16.284848938016474C526.5034086124872,21.910679302733065,610.5241739251311,37.171682195419415,739.2452192653062,71.52237196241472C867.9662646054813,105.87306172941004,1043.8744354722462,157.78768852034307,1175.6221441093203,189.8192896639554C1307.3698527463944,221.85089080756774,1405.6684951059706,224.48080287223797,1529.7314710877506,263.7119788240888C1653.7944470695306,302.94315477593966,1854.9552451812917,398.2906176165651,1920,425.2063453750604L 1920 1080 L 0 1080 Z" fill="url(&quot;#SvgjsLinearGradient1227&quot;)"></path><path d="M0,-12.613091817601799C47.64339153952943,-2.8436975374498363,174.90157856118822,13.41169773744356,285.8603492371766,46.00327386330997C396.81911991316497,78.59484998917638,551.4342285328203,146.01987548787363,665.7526240559304,182.93636493759666C780.0710195790405,219.8528543873197,863.9339498483914,233.06225076276453,971.7707223758372,267.5022105616482C1079.607494903283,301.94217036053186,1204.886087660197,350.2204979923994,1312.773259220605,389.5761237308987C1420.660430781013,428.931749469398,1517.889294941719,471.14369139358485,1619.093751738285,503.6359649926443C1720.2982085348508,536.1282385917037,1869.8489586230476,571.0474652698202,1920,584.5297653252554L 1920 1080 L 0 1080 Z" fill="url(&quot;#SvgjsLinearGradient1228&quot;)"></path><path d="M0,79.65008949541527C62.11448609655372,89.24359073997054,259.5314322317202,104.41342443274746,372.6869165793223,137.21109696274686C485.8424009269244,170.00876949274627,583.7259807307867,245.6196613101358,678.9329060856127,276.43612467541163C774.1398314404387,307.25258804068744,852.6104296759959,285.59279573305423,943.9284687082783,322.10987715440183C1035.2465077405607,358.6269585757494,1126.3096477338563,447.4340083778269,1226.8411402793072,495.5386132034971C1327.372632824758,543.6432180291673,1431.5909473608685,578.1474981550083,1547.117423980984,610.7375061084232C1662.6439006010996,643.3275140618381,1857.8529039968307,677.6884684547261,1920,691.0786609239867L 1920 1080 L 0 1080 Z" fill="url(&quot;#SvgjsLinearGradient1229&quot;)"></path><path d="M0,245.93124109563132C51.18079691390721,260.27217376329486,199.0401038237411,297.3972548691565,307.08478148344324,331.9768371016124C415.12945914314537,366.55641933406827,536.2894887384982,418.2059979143259,648.2680659582129,453.40873449036667C760.2466431779276,488.61147106640743,868.40409901991,509.23522826865536,978.9562448017311,543.1932565578569C1089.5083905835525,577.1512848470584,1207.5235776387883,616.8561560625207,1311.5809406491403,657.1569042255759C1415.6383036594923,697.4576523886311,1501.897246305367,749.2496417721312,1603.3004228638436,784.9977455361881C1704.7035994223202,820.7458493002449,1867.216737143974,857.2042299309622,1920,871.6455268099171L 1920 1080 L 0 1080 Z" fill="url(&quot;#SvgjsLinearGradient1230&quot;)"></path></svg>